# xmcd CD database file
#
# Track frame offsets:
#	150
#	20854
#	41716
#	57036
#	80026
#	102511
#	124536
#	153881
#	173561
#	197583
#	218139
#	248508
#
# Disc length: 3539 seconds
#
# Revision: 3
# Processed by: cddbd v1.5.2PL0 Copyright (c) Steve Scherf et al.
# Submitted via: CDex 1.81
#
DISCID=990dd10c
DTITLE=European Jazz Trio - Fantasista
DYEAR=2003
DGENRE=Jazz
TTITLE0=Chateau en suede
TTITLE1=Fantasista
TTITLE2=13 jour en france
TTITLE3=Norwegian wood
TTITLE4=Quand on n'a que l'amor
TTITLE5=Sailing
TTITLE6=New resolution
TTITLE7=Kiss of fire
TTITLE8=When you wish upon a star
TTITLE9=Lady madonna
TTITLE10=Little scorpio
TTITLE11=It could happen to you
EXTD=YEAR: 2003
EXTT0=
EXTT1=
EXTT2=
EXTT3=
EXTT4=
EXTT5=
EXTT6=
EXTT7=
EXTT8=
EXTT9=
EXTT10=
EXTT11=
PLAYORDER=
